<svg width="32"
  height="32"
  viewBox="0 0 32 32"
  fill="black"
  xmlns="http://www.w3.org/2000/svg">
  <path d="M17.163 31.1429H5V0.529297H16.1036C21.3601 0.529297 25.5978 4.65195 25.5978 9.71191C25.5978 11.794 24.878 13.7516 23.6057 15.304C25.471 16.9784 26.6572 19.3436 26.6572 21.9969C26.6572 27.0593 22.4195 31.1404 17.163 31.1404V31.1429ZM15.8907 7.22464H12.2892V12.5311H15.8907C17.2035 12.5311 18.263 11.5523 18.263 9.87789C18.263 8.20344 17.2035 7.22464 15.8907 7.22464ZM16.9932 19.185H12.2892V24.45H16.9932C18.2655 24.45 19.368 23.5102 19.368 21.8382C19.368 20.1662 18.2655 19.185 16.9932 19.185Z" />
</svg>
